<svg xmlns="http://www.w3.org/2000/svg" xmlns:xlink="http://www.w3.org/1999/xlink" width="500" zoomAndPan="magnify" viewBox="0 0 375 374.999991" height="500" preserveAspectRatio="xMidYMid meet" version="1.0"><defs><g/><clipPath id="41958907f7"><path d="M 166.628906 180.53125 L 183.878906 180.53125 L 183.878906 198.53125 L 166.628906 198.53125 Z M 166.628906 180.53125 " clip-rule="nonzero"/></clipPath><clipPath id="2d149d2c61"><path d="M 0 1 L 28 1 L 28 29 L 0 29 Z M 0 1 " clip-rule="nonzero"/></clipPath><clipPath id="be9ee94bfd"><path d="M 82 0.0390625 L 103 0.0390625 L 103 30 L 82 30 Z M 82 0.0390625 " clip-rule="nonzero"/></clipPath><clipPath id="b9d985763c"><path d="M 161 0.0390625 L 190 0.0390625 L 190 30 L 161 30 Z M 161 0.0390625 " clip-rule="nonzero"/></clipPath><clipPath id="b13069c16b"><path d="M 208 0.0390625 L 237 0.0390625 L 237 30 L 208 30 Z M 208 0.0390625 " clip-rule="nonzero"/></clipPath><clipPath id="2952789df0"><path d="M 246 0.0390625 L 267 0.0390625 L 267 30 L 246 30 Z M 246 0.0390625 " clip-rule="nonzero"/></clipPath><clipPath id="12d7fa08c2"><path d="M 346 0.0390625 L 375 0.0390625 L 375 30 L 346 30 Z M 346 0.0390625 " clip-rule="nonzero"/></clipPath><clipPath id="22c610f6ab"><rect x="0" width="375" y="0" height="42"/></clipPath></defs><g clip-path="url(#41958907f7)"><path fill="#000000" d="M 176.222656 194.621094 C 175.21875 195.527344 174.125 196.304688 172.941406 196.953125 C 172.621094 197.140625 172.292969 197.308594 171.957031 197.46875 C 170.714844 196.957031 169.652344 196.195312 168.769531 195.191406 C 167.882812 194.183594 167.269531 193.035156 166.921875 191.742188 C 167.269531 191.953125 167.628906 192.160156 167.988281 192.347656 C 170.558594 193.734375 173.304688 194.492188 176.222656 194.621094 Z M 171.296875 192.902344 C 169.960938 190.335938 169.246094 187.609375 169.148438 184.722656 C 169.148438 184.3125 169.148438 183.902344 169.148438 183.503906 C 168.347656 184.304688 167.730469 185.226562 167.292969 186.269531 C 166.859375 187.3125 166.640625 188.402344 166.636719 189.53125 C 166.636719 189.90625 166.660156 190.277344 166.710938 190.644531 C 167.015625 190.851562 167.328125 191.046875 167.644531 191.234375 C 168.800781 191.929688 170.023438 192.488281 171.304688 192.902344 Z M 176.378906 181.839844 C 176.734375 181.628906 177.09375 181.414062 177.464844 181.226562 C 176.175781 180.886719 174.875 180.847656 173.566406 181.109375 C 172.257812 181.371094 171.074219 181.90625 170.019531 182.71875 C 170.019531 183.085938 169.96875 183.453125 169.960938 183.820312 C 169.941406 185.167969 170.070312 186.496094 170.347656 187.8125 C 171.902344 185.367188 173.914062 183.378906 176.378906 181.839844 Z M 182.511719 186.667969 C 182.875 186.855469 183.234375 187.0625 183.578125 187.273438 C 183.234375 185.980469 182.617188 184.832031 181.734375 183.824219 C 180.847656 182.820312 179.789062 182.058594 178.546875 181.546875 C 178.207031 181.703125 177.878906 181.875 177.5625 182.0625 C 176.378906 182.714844 175.28125 183.492188 174.277344 184.394531 C 177.199219 184.523438 179.941406 185.28125 182.511719 186.667969 Z M 181.355469 195.59375 C 182.160156 194.789062 182.78125 193.863281 183.21875 192.8125 C 183.65625 191.761719 183.875 190.667969 183.875 189.53125 C 183.875 189.160156 183.851562 188.789062 183.800781 188.417969 C 183.496094 188.21875 183.183594 188.019531 182.863281 187.832031 C 181.707031 187.144531 180.488281 186.601562 179.203125 186.195312 C 180.539062 188.757812 181.257812 191.488281 181.355469 194.375 C 181.414062 194.785156 181.414062 195.195312 181.355469 195.59375 Z M 174.128906 197.230469 C 173.777344 197.445312 173.417969 197.65625 173.046875 197.84375 C 174.335938 198.1875 175.636719 198.226562 176.945312 197.964844 C 178.25 197.703125 179.433594 197.167969 180.492188 196.355469 C 180.492188 195.988281 180.542969 195.621094 180.550781 195.25 C 180.570312 193.90625 180.441406 192.574219 180.164062 191.257812 C 178.605469 193.703125 176.59375 195.691406 174.128906 197.222656 Z M 174.128906 197.230469 " fill-opacity="1" fill-rule="nonzero"/></g><g transform="matrix(1, 0, 0, 1, 0, 173)"><g clip-path="url(#22c610f6ab)"><g clip-path="url(#2d149d2c61)"><g fill="#000000" fill-opacity="1"><g transform="translate(0.0000045, 28.71304)"><g><path d="M 10.609375 0 L -0.9375 -27.53125 L 6.140625 -27.53125 L 13.078125 -9.4375 L 20.03125 -27.53125 L 27.09375 -27.53125 L 15.546875 0 Z M 10.609375 0 "/></g></g></g></g><g fill="#000000" fill-opacity="1"><g transform="translate(26.166474, 28.71304)"><g><path d="M 8.28125 -27.53125 L 8.28125 0 L 2 0 L 2 -27.53125 Z M 8.28125 -27.53125 "/></g></g></g><g fill="#000000" fill-opacity="1"><g transform="translate(36.446149, 28.71304)"><g><path d="M 8.28125 -27.53125 L 8.28125 -5.5 L 17.75 -5.5 L 17.75 0 L 2 0 L 2 -27.53125 Z M 8.28125 -27.53125 "/></g></g></g><g fill="#000000" fill-opacity="1"><g transform="translate(55.804025, 28.71304)"><g><path d="M 15.984375 -27.53125 L 27.09375 0 L 20.359375 0 L 18.328125 -5.5 L 7.84375 -5.5 L 5.8125 0 L -0.9375 0 L 10.171875 -27.53125 Z M 16.1875 -11.015625 L 13.109375 -19.03125 L 13.046875 -19.03125 L 9.984375 -11.015625 Z M 16.1875 -11.015625 "/></g></g></g><g clip-path="url(#be9ee94bfd)"><g fill="#000000" fill-opacity="1"><g transform="translate(81.302947, 28.71304)"><g><path d="M 12.15625 -28.03125 C 13.644531 -28.03125 15.097656 -27.8125 16.515625 -27.375 C 17.941406 -26.945312 19 -26.519531 19.6875 -26.09375 L 20.6875 -25.4375 L 18.15625 -20.421875 C 17.957031 -20.554688 17.675781 -20.726562 17.3125 -20.9375 C 16.957031 -21.15625 16.289062 -21.441406 15.3125 -21.796875 C 14.332031 -22.148438 13.421875 -22.328125 12.578125 -22.328125 C 11.535156 -22.328125 10.726562 -22.101562 10.15625 -21.65625 C 9.59375 -21.21875 9.3125 -20.617188 9.3125 -19.859375 C 9.3125 -19.484375 9.441406 -19.132812 9.703125 -18.8125 C 9.972656 -18.488281 10.429688 -18.140625 11.078125 -17.765625 C 11.722656 -17.398438 12.289062 -17.101562 12.78125 -16.875 C 13.269531 -16.65625 14.023438 -16.328125 15.046875 -15.890625 C 16.828125 -15.128906 18.347656 -14.097656 19.609375 -12.796875 C 20.867188 -11.492188 21.5 -10.019531 21.5 -8.375 C 21.5 -6.789062 21.210938 -5.410156 20.640625 -4.234375 C 20.078125 -3.054688 19.300781 -2.132812 18.3125 -1.46875 C 17.320312 -0.800781 16.222656 -0.304688 15.015625 0.015625 C 13.816406 0.335938 12.515625 0.5 11.109375 0.5 C 9.910156 0.5 8.734375 0.375 7.578125 0.125 C 6.421875 -0.113281 5.453125 -0.414062 4.671875 -0.78125 C 3.890625 -1.144531 3.1875 -1.503906 2.5625 -1.859375 C 1.945312 -2.222656 1.492188 -2.523438 1.203125 -2.765625 L 0.765625 -3.140625 L 3.90625 -8.40625 C 4.175781 -8.1875 4.539062 -7.90625 5 -7.5625 C 5.46875 -7.21875 6.296875 -6.753906 7.484375 -6.171875 C 8.679688 -5.597656 9.734375 -5.3125 10.640625 -5.3125 C 13.296875 -5.3125 14.625 -6.210938 14.625 -8.015625 C 14.625 -8.390625 14.523438 -8.738281 14.328125 -9.0625 C 14.140625 -9.382812 13.804688 -9.707031 13.328125 -10.03125 C 12.847656 -10.351562 12.425781 -10.609375 12.0625 -10.796875 C 11.695312 -10.984375 11.097656 -11.269531 10.265625 -11.65625 C 9.429688 -12.050781 8.8125 -12.347656 8.40625 -12.546875 C 6.738281 -13.367188 5.445312 -14.394531 4.53125 -15.625 C 3.625 -16.863281 3.171875 -18.195312 3.171875 -19.625 C 3.171875 -22.09375 4.082031 -24.109375 5.90625 -25.671875 C 7.726562 -27.242188 9.8125 -28.03125 12.15625 -28.03125 Z M 12.15625 -28.03125 "/></g></g></g></g><g fill="#000000" fill-opacity="1"><g transform="translate(103.731355, 28.71304)"><g/></g></g><g fill="#000000" fill-opacity="1"><g transform="translate(112.842896, 28.71304)"><g><path d="M 2 -27.53125 L 12.046875 -27.53125 C 14.847656 -27.53125 17.113281 -26.804688 18.84375 -25.359375 C 20.582031 -23.921875 21.453125 -21.820312 21.453125 -19.0625 C 21.453125 -16.300781 20.570312 -14.132812 18.8125 -12.5625 C 17.0625 -11 14.804688 -10.21875 12.046875 -10.21875 L 8.28125 -10.21875 L 8.28125 0 L 2 0 Z M 8.28125 -15.21875 L 10.046875 -15.21875 C 11.453125 -15.21875 12.601562 -15.5 13.5 -16.0625 C 14.40625 -16.632812 14.859375 -17.566406 14.859375 -18.859375 C 14.859375 -20.171875 14.40625 -21.109375 13.5 -21.671875 C 12.601562 -22.242188 11.453125 -22.53125 10.046875 -22.53125 L 8.28125 -22.53125 Z M 8.28125 -15.21875 "/></g></g></g><g fill="#000000" fill-opacity="1"><g transform="translate(135.071037, 28.71304)"><g><path d="M 8.28125 -11.046875 L 8.28125 0 L 2 0 L 2 -27.53125 L 8.28125 -27.53125 L 8.28125 -16.546875 L 17.15625 -16.546875 L 17.15625 -27.53125 L 23.421875 -27.53125 L 23.421875 0 L 17.15625 0 L 17.15625 -11.046875 Z M 8.28125 -11.046875 "/></g></g></g><g clip-path="url(#b9d985763c)"><g fill="#000000" fill-opacity="1"><g transform="translate(160.503244, 28.71304)"><g><path d="M 0.765625 -13.78125 C 0.765625 -17.769531 2.117188 -21.140625 4.828125 -23.890625 C 7.546875 -26.648438 10.820312 -28.03125 14.65625 -28.03125 C 18.5 -28.03125 21.765625 -26.65625 24.453125 -23.90625 C 27.148438 -21.164062 28.5 -17.789062 28.5 -13.78125 C 28.5 -9.757812 27.175781 -6.375 24.53125 -3.625 C 21.882812 -0.875 18.59375 0.5 14.65625 0.5 C 10.625 0.5 7.300781 -0.859375 4.6875 -3.578125 C 2.070312 -6.304688 0.765625 -9.707031 0.765625 -13.78125 Z M 7.546875 -13.78125 C 7.546875 -12.332031 7.765625 -11.015625 8.203125 -9.828125 C 8.648438 -8.640625 9.429688 -7.632812 10.546875 -6.8125 C 11.660156 -5.988281 13.03125 -5.578125 14.65625 -5.578125 C 16.988281 -5.578125 18.75 -6.375 19.9375 -7.96875 C 21.132812 -9.570312 21.734375 -11.507812 21.734375 -13.78125 C 21.734375 -16.03125 21.125 -17.960938 19.90625 -19.578125 C 18.695312 -21.191406 16.945312 -22 14.65625 -22 C 12.382812 -22 10.628906 -21.191406 9.390625 -19.578125 C 8.160156 -17.960938 7.546875 -16.03125 7.546875 -13.78125 Z M 7.546875 -13.78125 "/></g></g></g></g><g fill="#000000" fill-opacity="1"><g transform="translate(188.705558, 28.71304)"><g><path d="M 0.265625 -22.03125 L 0.265625 -27.53125 L 19.625 -27.53125 L 19.625 -22.03125 L 13.078125 -22.03125 L 13.078125 0 L 6.8125 0 L 6.8125 -22.03125 Z M 0.265625 -22.03125 "/></g></g></g><g clip-path="url(#b13069c16b)"><g fill="#000000" fill-opacity="1"><g transform="translate(207.529333, 28.71304)"><g><path d="M 0.765625 -13.78125 C 0.765625 -17.769531 2.117188 -21.140625 4.828125 -23.890625 C 7.546875 -26.648438 10.820312 -28.03125 14.65625 -28.03125 C 18.5 -28.03125 21.765625 -26.65625 24.453125 -23.90625 C 27.148438 -21.164062 28.5 -17.789062 28.5 -13.78125 C 28.5 -9.757812 27.175781 -6.375 24.53125 -3.625 C 21.882812 -0.875 18.59375 0.5 14.65625 0.5 C 10.625 0.5 7.300781 -0.859375 4.6875 -3.578125 C 2.070312 -6.304688 0.765625 -9.707031 0.765625 -13.78125 Z M 7.546875 -13.78125 C 7.546875 -12.332031 7.765625 -11.015625 8.203125 -9.828125 C 8.648438 -8.640625 9.429688 -7.632812 10.546875 -6.8125 C 11.660156 -5.988281 13.03125 -5.578125 14.65625 -5.578125 C 16.988281 -5.578125 18.75 -6.375 19.9375 -7.96875 C 21.132812 -9.570312 21.734375 -11.507812 21.734375 -13.78125 C 21.734375 -16.03125 21.125 -17.960938 19.90625 -19.578125 C 18.695312 -21.191406 16.945312 -22 14.65625 -22 C 12.382812 -22 10.628906 -21.191406 9.390625 -19.578125 C 8.160156 -17.960938 7.546875 -16.03125 7.546875 -13.78125 Z M 7.546875 -13.78125 "/></g></g></g></g><g fill="#000000" fill-opacity="1"><g transform="translate(236.799727, 28.71304)"><g/></g></g><g clip-path="url(#2952789df0)"><g fill="#000000" fill-opacity="1"><g transform="translate(245.24372, 28.71304)"><g><path d="M 12.15625 -28.03125 C 13.644531 -28.03125 15.097656 -27.8125 16.515625 -27.375 C 17.941406 -26.945312 19 -26.519531 19.6875 -26.09375 L 20.6875 -25.4375 L 18.15625 -20.421875 C 17.957031 -20.554688 17.675781 -20.726562 17.3125 -20.9375 C 16.957031 -21.15625 16.289062 -21.441406 15.3125 -21.796875 C 14.332031 -22.148438 13.421875 -22.328125 12.578125 -22.328125 C 11.535156 -22.328125 10.726562 -22.101562 10.15625 -21.65625 C 9.59375 -21.21875 9.3125 -20.617188 9.3125 -19.859375 C 9.3125 -19.484375 9.441406 -19.132812 9.703125 -18.8125 C 9.972656 -18.488281 10.429688 -18.140625 11.078125 -17.765625 C 11.722656 -17.398438 12.289062 -17.101562 12.78125 -16.875 C 13.269531 -16.65625 14.023438 -16.328125 15.046875 -15.890625 C 16.828125 -15.128906 18.347656 -14.097656 19.609375 -12.796875 C 20.867188 -11.492188 21.5 -10.019531 21.5 -8.375 C 21.5 -6.789062 21.210938 -5.410156 20.640625 -4.234375 C 20.078125 -3.054688 19.300781 -2.132812 18.3125 -1.46875 C 17.320312 -0.800781 16.222656 -0.304688 15.015625 0.015625 C 13.816406 0.335938 12.515625 0.5 11.109375 0.5 C 9.910156 0.5 8.734375 0.375 7.578125 0.125 C 6.421875 -0.113281 5.453125 -0.414062 4.671875 -0.78125 C 3.890625 -1.144531 3.1875 -1.503906 2.5625 -1.859375 C 1.945312 -2.222656 1.492188 -2.523438 1.203125 -2.765625 L 0.765625 -3.140625 L 3.90625 -8.40625 C 4.175781 -8.1875 4.539062 -7.90625 5 -7.5625 C 5.46875 -7.21875 6.296875 -6.753906 7.484375 -6.171875 C 8.679688 -5.597656 9.734375 -5.3125 10.640625 -5.3125 C 13.296875 -5.3125 14.625 -6.210938 14.625 -8.015625 C 14.625 -8.390625 14.523438 -8.738281 14.328125 -9.0625 C 14.140625 -9.382812 13.804688 -9.707031 13.328125 -10.03125 C 12.847656 -10.351562 12.425781 -10.609375 12.0625 -10.796875 C 11.695312 -10.984375 11.097656 -11.269531 10.265625 -11.65625 C 9.429688 -12.050781 8.8125 -12.347656 8.40625 -12.546875 C 6.738281 -13.367188 5.445312 -14.394531 4.53125 -15.625 C 3.625 -16.863281 3.171875 -18.195312 3.171875 -19.625 C 3.171875 -22.09375 4.082031 -24.109375 5.90625 -25.671875 C 7.726562 -27.242188 9.8125 -28.03125 12.15625 -28.03125 Z M 12.15625 -28.03125 "/></g></g></g></g><g fill="#000000" fill-opacity="1"><g transform="translate(266.069999, 28.71304)"><g><path d="M 0.265625 -22.03125 L 0.265625 -27.53125 L 19.625 -27.53125 L 19.625 -22.03125 L 13.078125 -22.03125 L 13.078125 0 L 6.8125 0 L 6.8125 -22.03125 Z M 0.265625 -22.03125 "/></g></g></g><g fill="#000000" fill-opacity="1"><g transform="translate(285.961854, 28.71304)"><g><path d="M 23.15625 -27.53125 L 23.15625 -9.78125 C 23.15625 -6.394531 22.242188 -3.832031 20.421875 -2.09375 C 18.597656 -0.363281 15.925781 0.5 12.40625 0.5 C 8.894531 0.5 6.226562 -0.363281 4.40625 -2.09375 C 2.582031 -3.832031 1.671875 -6.394531 1.671875 -9.78125 L 1.671875 -27.53125 L 7.9375 -27.53125 L 7.9375 -11.609375 C 7.9375 -9.390625 8.285156 -7.84375 8.984375 -6.96875 C 9.691406 -6.101562 10.832031 -5.671875 12.40625 -5.671875 C 13.988281 -5.671875 15.128906 -6.101562 15.828125 -6.96875 C 16.535156 -7.84375 16.890625 -9.390625 16.890625 -11.609375 L 16.890625 -27.53125 Z M 23.15625 -27.53125 "/></g></g></g><g fill="#000000" fill-opacity="1"><g transform="translate(310.793315, 28.71304)"><g><path d="M 2 -27.53125 L 9.984375 -27.53125 C 13.804688 -27.53125 17.070312 -26.222656 19.78125 -23.609375 C 22.5 -20.992188 23.859375 -17.71875 23.859375 -13.78125 C 23.859375 -9.820312 22.503906 -6.535156 19.796875 -3.921875 C 17.097656 -1.304688 13.828125 0 9.984375 0 L 2 0 Z M 8.28125 -5.609375 L 9.25 -5.609375 C 11.539062 -5.609375 13.410156 -6.378906 14.859375 -7.921875 C 16.316406 -9.472656 17.0625 -11.414062 17.09375 -13.75 C 17.09375 -16.082031 16.363281 -18.023438 14.90625 -19.578125 C 13.445312 -21.140625 11.5625 -21.921875 9.25 -21.921875 L 8.28125 -21.921875 Z M 8.28125 -5.609375 "/></g></g></g><g fill="#000000" fill-opacity="1"><g transform="translate(335.424493, 28.71304)"><g><path d="M 8.28125 -27.53125 L 8.28125 0 L 2 0 L 2 -27.53125 Z M 8.28125 -27.53125 "/></g></g></g><g clip-path="url(#12d7fa08c2)"><g fill="#000000" fill-opacity="1"><g transform="translate(345.704168, 28.71304)"><g><path d="M 0.765625 -13.78125 C 0.765625 -17.769531 2.117188 -21.140625 4.828125 -23.890625 C 7.546875 -26.648438 10.820312 -28.03125 14.65625 -28.03125 C 18.5 -28.03125 21.765625 -26.65625 24.453125 -23.90625 C 27.148438 -21.164062 28.5 -17.789062 28.5 -13.78125 C 28.5 -9.757812 27.175781 -6.375 24.53125 -3.625 C 21.882812 -0.875 18.59375 0.5 14.65625 0.5 C 10.625 0.5 7.300781 -0.859375 4.6875 -3.578125 C 2.070312 -6.304688 0.765625 -9.707031 0.765625 -13.78125 Z M 7.546875 -13.78125 C 7.546875 -12.332031 7.765625 -11.015625 8.203125 -9.828125 C 8.648438 -8.640625 9.429688 -7.632812 10.546875 -6.8125 C 11.660156 -5.988281 13.03125 -5.578125 14.65625 -5.578125 C 16.988281 -5.578125 18.75 -6.375 19.9375 -7.96875 C 21.132812 -9.570312 21.734375 -11.507812 21.734375 -13.78125 C 21.734375 -16.03125 21.125 -17.960938 19.90625 -19.578125 C 18.695312 -21.191406 16.945312 -22 14.65625 -22 C 12.382812 -22 10.628906 -21.191406 9.390625 -19.578125 C 8.160156 -17.960938 7.546875 -16.03125 7.546875 -13.78125 Z M 7.546875 -13.78125 "/></g></g></g></g></g></g></svg>